<svg xmlns="http://www.w3.org/2000/svg" version="1.1" xmlns:xlink="http://www.w3.org/1999/xlink" width="1600" height="900" preserveAspectRatio="none" viewBox="0 0 1600 900"><g mask="url(&quot;#SvgjsMask1062&quot;)" fill="none"><rect width="1600" height="900" x="0" y="0" fill="rgba(140, 81, 193, 1)"></rect><path d="M0,582.727C104.708,554.317,190.126,492.001,291.719,453.924C428.853,402.526,619.154,441.618,700.825,320.056C779.939,202.3,677.129,45.922,660.489,-94.964C643.318,-240.343,692.638,-406.641,601.465,-521.172C510,-636.07,345.091,-669.745,198.346,-675.505C68.806,-680.59,-38.235,-590.266,-161.827,-551.132C-281.989,-513.084,-439.239,-547.244,-517.861,-448.729C-596.759,-349.868,-544.897,-203.982,-539.737,-77.602C-535.496,26.273,-508.07,121.507,-490.393,223.955C-465.61,367.586,-532.575,559.602,-414.942,645.662C-299.702,729.972,-137.806,620.118,0,582.727" fill="#753ca8"></path><path d="M1600 1469.661C1708.415 1481.613 1806.9569999999999 1420.989 1907.216 1378.037 2027.146 1326.658 2189.656 1312.72 2243.619 1193.931 2297.596 1075.1100000000001 2212.013 939.47 2161.018 819.338 2120.145 723.05 2033.028 661.079 1979.325 571.313 1909.988 455.413 1917.446 284.571 1800.587 216.86400000000003 1684.226 149.44500000000005 1535.189 201.94600000000003 1405.942 239.09900000000005 1276.113 276.419 1127.437 314.47299999999996 1057.976 430.333 989.48 544.5830000000001 1066.46 689.024 1056.559 821.865 1047.58 942.331 943.475 1067.4850000000001 1002.636 1172.807 1062.617 1279.588 1223.76 1260.276 1333.438 1314.779 1427.367 1361.4560000000001 1495.744 1458.167 1600 1469.661" fill="#a373cd"></path></g><defs><mask id="SvgjsMask1062"><rect width="1600" height="900" fill="#ffffff"></rect></mask></defs></svg>