<?xml version="1.0" encoding="UTF-8" ?>
<!DOCTYPE svg PUBLIC "-//W3C//DTD SVG 1.1//EN" "http://www.w3.org/Graphics/SVG/1.1/DTD/svg11.dtd">
<svg width="1525pt" height="417pt" viewBox="0 0 1525 417" version="1.1" xmlns="http://www.w3.org/2000/svg">
<g id="#ea5889ff">
<path fill="#ea5889" opacity="1.00" d=" M 228.48 75.48 C 229.96 74.89 231.64 75.40 233.19 75.45 C 244.83 76.83 256.36 79.05 267.89 81.15 C 311.04 89.28 354.00 98.35 396.91 107.64 C 414.18 111.48 431.52 115.08 448.66 119.50 C 452.56 120.37 454.01 124.70 454.43 128.21 C 455.19 134.81 454.16 141.93 450.52 147.59 C 449.11 149.92 445.97 148.78 443.75 148.96 C 429.71 147.72 415.88 144.77 402.05 142.10 C 357.83 133.13 313.90 122.74 270.07 112.04 C 253.94 107.91 237.68 104.20 221.74 99.39 C 219.45 98.74 220.24 95.89 220.55 94.19 C 222.30 87.63 225.23 81.42 228.48 75.48 Z" />
<path fill="#ea5889" opacity="1.00" d=" M 251.45 112.62 C 253.06 112.02 254.93 112.06 256.54 112.68 C 294.85 129.20 334.47 142.84 375.10 152.36 C 400.72 158.32 426.83 162.46 453.13 163.48 C 457.16 163.62 459.75 168.15 458.45 171.84 C 449.26 214.73 436.31 257.15 416.21 296.27 C 407.89 312.27 398.15 327.64 386.14 341.15 C 383.96 343.91 380.13 343.34 377.07 343.03 C 357.25 340.80 338.02 334.89 319.56 327.50 C 274.38 309.08 233.94 280.63 197.69 248.27 C 194.90 246.27 193.96 241.89 196.20 239.16 C 226.40 206.10 242.30 162.12 247.70 118.18 C 247.86 115.82 249.29 113.62 251.45 112.62 M 319.50 160.65 C 316.74 162.42 316.88 166.24 315.82 169.03 C 314.79 171.27 316.04 173.90 318.40 174.55 C 333.66 180.85 349.66 185.50 365.99 187.98 C 369.73 187.42 369.81 182.85 370.88 180.02 C 372.01 177.79 371.38 174.21 368.58 173.72 C 353.27 171.09 338.18 166.97 323.81 161.04 C 322.44 160.57 320.85 159.63 319.50 160.65 M 257.01 229.89 C 255.80 239.75 258.93 250.04 265.48 257.51 C 273.24 266.32 283.75 272.32 294.70 276.27 C 309.05 281.37 325.75 281.02 339.04 273.12 C 327.74 268.84 316.95 263.12 307.47 255.60 C 288.73 240.74 274.95 219.48 269.59 196.13 C 263.65 206.59 258.26 217.77 257.01 229.89 Z" />
<path fill="#ea5889" opacity="1.00" d=" M 116.42 122.42 C 117.78 121.52 119.49 121.80 121.03 121.72 C 154.37 121.78 187.71 121.70 221.05 121.76 C 224.31 121.63 226.41 125.21 225.74 128.17 C 225.51 131.86 224.81 137.30 219.97 137.24 C 186.63 137.29 153.29 137.23 119.95 137.27 C 116.94 137.70 113.88 135.16 114.00 132.08 C 114.11 128.85 113.04 124.38 116.42 122.42 Z" />
<path fill="#ea5889" opacity="1.00" d=" M 148.29 147.31 C 170.20 147.09 192.12 147.30 214.03 147.21 C 217.55 146.72 220.71 150.26 219.86 153.69 C 219.21 157.21 218.64 162.65 213.98 162.76 C 192.29 162.79 170.60 162.79 148.92 162.76 C 145.96 162.89 143.60 159.95 143.97 157.09 C 143.66 153.44 143.59 148.02 148.29 147.31 Z" />
<path fill="#ea5889" opacity="1.00" d=" M 175.40 173.39 C 176.77 172.58 178.44 172.79 179.96 172.72 C 188.98 172.79 198.00 172.68 207.02 172.76 C 210.56 172.70 213.28 176.60 211.99 179.90 C 210.91 183.17 210.17 187.94 205.95 188.38 C 196.98 188.71 187.99 188.45 179.01 188.51 C 175.86 188.81 172.35 186.47 172.74 183.03 C 172.80 179.71 171.81 175.26 175.40 173.39 Z" />
<path fill="#ea5889" opacity="1.00" d=" M 1187.26 218.23 C 1198.60 215.48 1211.44 219.01 1218.99 228.10 C 1220.87 230.85 1217.45 233.12 1215.44 234.49 C 1213.50 235.91 1211.44 234.18 1210.08 232.85 C 1206.09 229.03 1200.54 226.99 1195.04 227.21 C 1184.83 226.91 1175.22 234.91 1173.43 244.92 C 1171.28 254.65 1176.25 265.44 1185.27 269.80 C 1193.43 273.87 1204.37 272.56 1210.66 265.71 C 1212.14 264.16 1214.25 261.56 1216.55 263.46 C 1218.26 264.88 1221.85 266.74 1220.36 269.41 C 1213.44 279.01 1200.81 283.48 1189.29 281.27 C 1179.83 279.77 1171.42 273.53 1166.76 265.23 C 1163.18 258.78 1162.28 251.10 1163.38 243.88 C 1165.27 231.61 1175.24 221.11 1187.26 218.23 Z" />
<path fill="#ea5889" opacity="1.00" d=" M 1247.40 218.58 C 1255.97 216.35 1265.58 217.05 1273.26 221.71 C 1280.72 226.30 1286.66 233.76 1288.36 242.48 C 1289.78 250.34 1288.99 258.85 1284.87 265.83 C 1280.66 272.85 1273.87 278.52 1265.86 280.60 C 1257.41 282.76 1248.01 282.02 1240.41 277.55 C 1232.20 272.82 1226.03 264.35 1224.77 254.87 C 1223.89 247.87 1224.60 240.46 1228.12 234.24 C 1232.25 226.86 1239.20 220.90 1247.40 218.58 M 1251.56 227.71 C 1241.55 229.91 1233.89 239.73 1234.47 250.02 C 1234.24 261.52 1244.36 272.12 1255.94 272.04 C 1267.28 272.94 1277.80 263.33 1278.88 252.20 C 1279.81 244.96 1276.89 237.40 1271.32 232.68 C 1266.13 227.72 1258.43 226.22 1251.56 227.71 Z" />
<path fill="#ea5889" opacity="1.00" d=" M 1321.16 219.06 C 1327.54 216.35 1335.45 216.80 1341.20 220.82 C 1344.32 222.97 1346.14 226.37 1347.83 229.65 C 1351.37 224.88 1355.71 220.32 1361.52 218.44 C 1368.28 216.31 1376.42 217.26 1381.77 222.19 C 1386.07 226.21 1387.84 232.26 1387.72 238.02 C 1387.66 250.97 1387.79 263.92 1387.66 276.87 C 1387.56 279.67 1384.07 279.96 1381.96 279.76 C 1380.29 279.89 1377.83 279.13 1377.82 277.15 C 1377.62 264.47 1377.89 251.79 1377.70 239.11 C 1377.71 233.87 1374.34 228.40 1368.88 227.56 C 1359.82 225.54 1351.74 233.26 1348.85 241.13 C 1348.51 253.32 1348.97 265.53 1348.63 277.71 C 1347.50 280.29 1344.17 279.83 1341.91 279.68 C 1340.03 279.59 1338.46 277.94 1338.77 276.01 C 1338.69 263.68 1338.81 251.33 1338.73 239.00 C 1338.74 233.99 1335.62 228.76 1330.49 227.69 C 1321.45 225.36 1312.92 232.95 1310.10 240.98 C 1309.79 253.02 1310.19 265.08 1309.92 277.12 C 1309.45 280.33 1305.36 279.86 1303.01 279.68 C 1301.13 279.68 1299.74 277.93 1300.01 276.10 C 1300.04 258.08 1299.89 240.04 1300.09 222.02 C 1300.71 218.39 1305.35 219.50 1307.97 219.71 C 1310.62 221.56 1308.90 225.34 1309.91 228.02 C 1313.34 224.67 1316.58 220.89 1321.16 219.06 Z" />
<path fill="#ea5889" opacity="1.00" d=" M 1142.41 266.58 C 1147.19 264.41 1153.34 268.73 1152.51 274.05 C 1152.41 279.45 1145.66 282.58 1141.25 279.76 C 1136.24 276.98 1136.85 268.36 1142.41 266.58 Z" />
</g>
<g id="#8c51c1ff">
<path fill="#8c51c1" opacity="1.00" d=" M 777.84 162.02 C 785.65 159.52 793.49 157.12 801.34 154.73 C 802.70 162.53 801.59 170.49 800.17 178.21 C 798.46 185.99 797.14 193.88 794.77 201.51 C 802.33 193.72 813.95 189.86 824.60 192.52 C 830.97 193.96 835.95 199.08 838.14 205.12 C 841.44 214.39 841.15 224.54 839.63 234.15 C 836.94 250.40 828.20 266.07 814.23 275.19 C 807.41 279.76 799.15 282.00 790.96 281.78 C 779.17 281.71 767.00 279.63 756.68 273.66 C 760.14 263.19 761.85 252.27 764.28 241.53 C 768.40 222.08 772.60 202.65 776.66 183.19 C 777.93 176.23 779.32 169.06 777.84 162.02 M 798.59 214.66 C 795.05 217.93 791.06 221.53 790.38 226.56 C 787.89 238.27 785.23 249.94 782.75 261.64 C 787.90 265.09 795.34 266.62 800.68 262.73 C 806.27 259.37 809.40 253.33 811.21 247.27 C 813.75 238.72 815.70 229.90 816.03 220.97 C 815.98 217.23 815.52 212.20 811.54 210.54 C 806.87 209.34 802.14 211.80 798.59 214.66 Z" />
<path fill="#8c51c1" opacity="1.00" d=" M 738.13 178.99 C 745.03 172.81 751.84 166.53 758.71 160.30 C 760.88 165.28 763.11 170.23 765.31 175.20 C 758.07 179.82 750.73 184.28 743.45 188.83 C 741.63 185.57 739.89 182.28 738.13 178.99 Z" />
<path fill="#8c51c1" opacity="1.00" d=" M 500.88 163.21 C 515.81 163.35 530.75 163.14 545.68 163.31 C 553.89 163.52 562.66 166.47 567.54 173.43 C 573.14 181.37 572.74 191.91 570.40 200.93 C 566.68 215.48 553.81 227.02 539.03 229.40 C 541.84 232.21 544.11 235.54 545.65 239.21 C 551.48 252.45 556.33 266.09 561.04 279.75 C 551.76 279.75 542.49 279.73 533.22 279.76 C 529.04 267.30 525.61 254.56 520.48 242.43 C 518.38 237.75 515.85 232.25 510.36 230.92 C 506.60 247.15 503.38 263.49 499.80 279.76 C 491.86 279.75 483.92 279.71 475.98 279.78 C 484.25 240.92 492.39 202.02 500.88 163.21 M 520.49 182.31 C 518.38 192.72 516.04 203.08 513.92 213.49 C 520.45 213.46 527.11 213.79 533.52 212.26 C 541.18 210.29 545.64 202.43 546.59 195.02 C 547.25 190.69 545.44 185.70 541.17 183.93 C 534.62 181.23 527.37 182.52 520.49 182.31 Z" />
<path fill="#8c51c1" opacity="1.00" d=" M 936.29 199.23 C 943.33 196.54 950.25 193.52 957.37 191.03 C 958.65 195.35 959.35 199.82 959.33 204.33 C 965.69 198.06 973.79 193.16 982.82 192.23 C 988.28 191.60 994.60 192.11 998.72 196.19 C 1001.02 198.35 1001.78 201.50 1002.41 204.47 C 1008.88 197.82 1017.47 192.92 1026.85 192.15 C 1032.95 191.47 1040.07 192.85 1043.86 198.15 C 1048.05 204.04 1047.30 211.80 1046.26 218.56 C 1042.06 238.97 1037.63 259.34 1033.39 279.75 C 1026.05 279.73 1018.71 279.79 1011.37 279.71 C 1015.54 259.80 1019.95 239.94 1024.00 220.00 C 1024.43 217.19 1025.49 212.60 1021.97 211.38 C 1016.66 209.88 1011.34 213.00 1007.58 216.54 C 1004.89 219.29 1001.69 222.13 1001.00 226.10 C 997.25 244.00 993.38 261.87 989.63 279.76 C 982.46 279.73 975.30 279.77 968.14 279.73 C 972.22 260.18 976.48 240.66 980.59 221.11 C 981.00 218.50 981.65 215.76 980.85 213.15 C 979.22 210.23 975.16 210.81 972.46 211.58 C 966.38 213.79 961.58 218.76 958.13 224.07 C 953.95 242.47 950.29 261.01 946.23 279.44 C 938.93 280.18 931.38 279.53 924.00 279.74 C 928.24 260.19 932.39 240.63 936.59 221.07 C 937.93 213.89 938.01 206.35 936.29 199.23 Z" />
<path fill="#8c51c1" opacity="1.00" d=" M 590.27 201.29 C 599.20 193.53 611.62 190.98 623.16 192.32 C 630.16 193.01 637.56 195.32 642.12 200.98 C 646.64 206.50 647.21 214.18 646.07 220.97 C 644.04 230.95 635.46 238.20 626.19 241.44 C 615.66 245.14 604.07 246.03 593.10 243.99 C 592.41 249.19 591.47 254.92 594.27 259.71 C 596.62 263.69 601.59 265.00 605.94 265.03 C 614.92 265.20 623.18 260.86 630.41 255.93 C 632.33 260.68 634.20 265.46 636.17 270.20 C 624.36 278.82 609.42 283.53 594.79 281.60 C 586.91 280.68 578.90 277.25 574.25 270.58 C 568.48 262.48 568.07 251.95 569.22 242.42 C 571.31 226.91 578.35 211.66 590.27 201.29 M 604.51 212.58 C 600.13 216.71 598.18 222.69 596.92 228.42 C 604.78 229.68 613.71 229.28 620.30 224.31 C 625.37 220.81 625.07 211.36 618.91 209.24 C 614.00 207.92 608.20 208.91 604.51 212.58 Z" />
<path fill="#8c51c1" opacity="1.00" d=" M 674.16 198.11 C 682.50 192.40 693.03 190.51 702.96 191.82 C 709.78 192.92 716.05 196.52 720.73 201.57 C 716.44 206.41 711.96 211.07 707.59 215.84 C 703.56 211.85 697.92 208.40 692.03 209.79 C 686.30 210.97 682.59 216.10 680.13 221.02 C 675.38 230.96 672.61 241.94 672.49 252.96 C 672.40 257.85 674.82 263.73 680.18 264.62 C 688.22 265.82 695.32 260.84 701.37 256.21 C 703.84 260.98 706.52 265.64 708.99 270.41 C 699.94 277.58 688.62 282.23 676.95 281.78 C 667.52 282.00 657.22 278.35 652.20 269.90 C 646.49 260.31 647.39 248.47 649.34 237.91 C 652.67 222.41 660.70 207.09 674.16 198.11 Z" />
<path fill="#8c51c1" opacity="1.00" d=" M 733.18 195.40 C 740.97 194.23 748.74 192.95 756.55 191.90 C 750.35 221.18 744.15 250.47 737.94 279.76 C 730.37 279.72 722.81 279.78 715.24 279.73 C 721.26 251.63 727.25 223.52 733.18 195.40 Z" />
<path fill="#8c51c1" opacity="1.00" d=" M 863.86 204.84 C 870.58 197.57 880.02 192.88 889.93 192.25 C 898.88 191.56 908.72 192.27 916.20 197.76 C 923.40 203.13 925.27 213.17 923.32 221.53 C 921.33 230.23 914.22 236.91 906.23 240.34 C 895.06 245.09 882.42 246.09 870.51 244.06 C 869.76 249.17 868.89 254.80 871.53 259.55 C 873.83 263.52 878.67 264.95 883.01 265.01 C 892.09 265.29 900.47 260.94 907.76 255.94 C 909.71 260.70 911.63 265.46 913.56 270.22 C 902.17 278.41 888.02 283.18 873.92 281.79 C 865.83 281.19 857.47 278.06 852.34 271.52 C 847.51 265.50 846.06 257.55 846.06 250.02 C 846.39 233.51 852.57 216.98 863.86 204.84 M 880.25 214.29 C 877.02 218.36 875.46 223.41 874.28 228.39 C 882.08 229.71 890.91 229.26 897.54 224.49 C 902.38 221.21 902.66 212.66 897.36 209.74 C 891.53 207.23 884.08 209.20 880.25 214.29 Z" />
<path fill="#8c51c1" opacity="1.00" d=" M 1073.44 203.48 C 1080.63 196.27 1090.64 192.27 1100.78 192.06 C 1110.56 191.73 1122.03 193.29 1128.31 201.70 C 1134.75 211.13 1133.24 225.10 1125.10 233.07 C 1117.82 240.64 1107.16 243.63 1097.02 244.70 C 1090.94 245.24 1084.78 245.24 1078.78 244.04 C 1078.01 249.15 1077.13 254.80 1079.77 259.54 C 1082.03 263.39 1086.69 264.91 1090.94 265.00 C 1100.12 265.39 1108.65 261.01 1116.00 255.93 C 1117.96 260.69 1119.89 265.46 1121.80 270.24 C 1110.60 278.24 1096.78 283.02 1082.91 281.85 C 1074.77 281.35 1066.31 278.43 1060.97 271.99 C 1055.85 265.92 1054.30 257.72 1054.31 249.98 C 1054.66 232.87 1061.30 215.67 1073.44 203.48 M 1088.82 213.89 C 1085.38 218.02 1083.76 223.27 1082.49 228.40 C 1090.25 229.70 1098.96 229.26 1105.60 224.63 C 1110.44 221.46 1110.98 213.22 1106.03 209.97 C 1100.33 207.16 1092.82 209.00 1088.82 213.89 Z" />
</g>
</svg>
