<?xml version="1.0" encoding="UTF-8" ?>
<!DOCTYPE svg PUBLIC "-//W3C//DTD SVG 1.1//EN" "http://www.w3.org/Graphics/SVG/1.1/DTD/svg11.dtd">
<svg width="461pt" height="519pt" viewBox="0 0 461 519" version="1.1" xmlns="http://www.w3.org/2000/svg">
<g id="#ffffffff">
<path fill="#ffffff" opacity="1.00" d=" M 207.74 19.68 C 221.51 13.14 236.63 8.70 252.00 9.12 C 257.05 9.25 262.13 9.03 267.17 9.68 C 262.11 10.30 257.01 9.62 251.96 10.15 C 235.12 11.50 218.19 15.67 203.62 24.43 C 185.54 34.46 170.98 50.27 161.54 68.57 C 156.16 79.81 152.10 91.76 150.34 104.12 C 149.64 98.42 151.20 92.83 152.56 87.35 C 160.07 58.25 180.63 32.78 207.74 19.68 Z" />
<path fill="#ffffff" opacity="1.00" d=" M 331.01 72.91 C 335.32 74.75 337.86 78.80 340.57 82.37 C 347.40 91.54 350.43 103.27 349.57 114.61 C 349.35 116.86 348.22 118.87 347.37 120.91 C 347.23 117.69 347.02 114.47 346.48 111.29 C 344.54 97.49 338.86 84.36 331.01 72.91 Z" />
</g>
<g id="#687074ff">
<path fill="#687074" opacity="1.00" d=" M 222.38 6.26 C 231.35 3.50 240.62 1.08 250.08 1.15 C 259.92 1.05 269.80 0.73 279.62 1.62 C 300.09 4.85 320.00 12.73 336.34 25.62 C 348.64 34.61 358.39 46.67 366.43 59.51 C 376.61 76.61 383.09 96.08 383.83 116.04 C 384.90 123.70 383.48 131.33 383.31 139.00 C 381.45 152.37 377.99 165.45 375.55 178.72 C 373.06 191.55 369.79 204.21 367.43 217.07 C 368.11 217.35 369.46 217.90 370.14 218.18 C 366.88 218.03 363.72 217.24 360.67 216.14 C 362.50 216.37 364.35 216.55 366.19 216.74 C 369.06 201.44 372.22 186.19 375.62 170.99 C 379.02 154.84 383.04 138.59 382.72 121.96 C 382.41 109.57 380.69 97.09 376.47 85.39 C 372.92 76.07 369.19 66.69 363.49 58.44 C 352.87 41.14 337.38 27.16 319.81 17.16 C 297.51 4.82 271.28 0.17 246.02 2.97 C 212.05 6.66 180.24 25.94 160.86 54.02 C 156.28 60.98 151.87 68.11 148.79 75.89 C 143.84 87.77 140.97 100.38 138.56 112.99 C 135.51 128.71 132.08 144.36 128.69 160.01 C 128.24 159.94 127.35 159.79 126.90 159.72 C 132.05 135.31 136.45 110.71 142.63 86.53 C 146.95 74.65 152.22 62.96 159.68 52.69 C 174.82 30.96 197.30 14.64 222.38 6.26 Z" />
</g>
<g id="#e0e0e0ff">
<path fill="#e0e0e0" opacity="1.00" d=" M 246.02 2.97 C 271.28 0.17 297.51 4.82 319.81 17.16 C 337.38 27.16 352.87 41.14 363.49 58.44 C 369.19 66.69 372.92 76.07 376.47 85.39 C 380.69 97.09 382.41 109.57 382.72 121.96 C 383.04 138.59 379.02 154.84 375.62 170.99 C 372.22 186.19 369.06 201.44 366.19 216.74 C 364.35 216.55 362.50 216.37 360.67 216.14 C 350.95 213.92 341.17 211.87 331.35 210.12 C 333.23 199.01 336.04 188.07 338.05 176.98 C 341.51 158.37 347.67 140.04 347.37 120.91 C 348.22 118.87 349.35 116.86 349.57 114.61 C 350.43 103.27 347.40 91.54 340.57 82.37 C 337.86 78.80 335.32 74.75 331.01 72.91 C 327.98 69.60 325.50 65.83 322.42 62.57 C 309.35 49.62 292.31 40.38 273.97 37.90 C 247.09 33.58 218.40 42.85 199.33 62.33 C 186.09 74.91 177.99 92.14 174.60 109.93 C 171.52 125.79 168.10 141.59 164.68 157.38 C 163.64 162.75 162.17 168.07 161.78 173.54 C 159.15 173.96 156.48 173.54 153.91 172.95 C 145.03 170.99 136.08 169.35 127.20 167.36 C 127.67 164.90 128.15 162.45 128.69 160.01 C 132.08 144.36 135.51 128.71 138.56 112.99 C 140.97 100.38 143.84 87.77 148.79 75.89 C 151.87 68.11 156.28 60.98 160.86 54.02 C 180.24 25.94 212.05 6.66 246.02 2.97 M 207.74 19.68 C 180.63 32.78 160.07 58.25 152.56 87.35 C 151.20 92.83 149.64 98.42 150.34 104.12 C 152.10 91.76 156.16 79.81 161.54 68.57 C 170.98 50.27 185.54 34.46 203.62 24.43 C 218.19 15.67 235.12 11.50 251.96 10.15 C 257.01 9.62 262.11 10.30 267.17 9.68 C 262.13 9.03 257.05 9.25 252.00 9.12 C 236.63 8.70 221.51 13.14 207.74 19.68 M 142.40 133.40 C 146.26 127.78 146.94 120.42 146.63 113.76 C 143.43 119.72 142.09 126.68 142.40 133.40 Z" />
<path fill="#e0e0e0" opacity="1.00" d=" M 205.71 10.59 C 211.17 8.88 216.53 6.24 222.38 6.26 C 197.30 14.64 174.82 30.96 159.68 52.69 C 152.22 62.96 146.95 74.65 142.63 86.53 C 142.87 77.41 145.71 68.49 148.93 60.00 C 153.61 47.51 162.31 36.91 172.34 28.30 C 182.20 20.27 194.04 15.34 205.71 10.59 Z" />
</g>
<g id="#2e3a3fff">
<path fill="#2e3a3f" opacity="1.00" d=" M 199.33 62.33 C 218.40 42.85 247.09 33.58 273.97 37.90 C 292.31 40.38 309.35 49.62 322.42 62.57 C 325.50 65.83 327.98 69.60 331.01 72.91 C 338.86 84.36 344.54 97.49 346.48 111.29 C 345.89 110.02 345.23 108.78 344.63 107.51 C 344.03 105.03 343.42 102.55 342.78 100.09 C 338.12 85.63 330.28 72.09 319.05 61.75 C 304.75 48.27 285.61 39.83 265.94 38.91 C 257.07 38.94 248.12 39.59 239.50 41.85 C 220.08 47.21 202.38 59.25 191.04 76.01 C 184.23 85.54 180.18 96.77 177.66 108.13 C 173.56 127.05 170.06 146.10 165.78 164.99 C 165.21 167.62 164.57 170.25 164.31 172.94 C 163.48 173.64 162.64 174.33 161.81 175.02 C 161.80 174.65 161.79 173.91 161.78 173.54 C 162.17 168.07 163.64 162.75 164.68 157.38 C 168.10 141.59 171.52 125.79 174.60 109.93 C 177.99 92.14 186.09 74.91 199.33 62.33 Z" />
</g>
<g id="#455a64ff">
<path fill="#455a64" opacity="1.00" d=" M 344.63 107.51 C 345.23 108.78 345.89 110.02 346.48 111.29 C 347.02 114.47 347.23 117.69 347.37 120.91 C 347.67 140.04 341.51 158.37 338.05 176.98 C 336.04 188.07 333.23 199.01 331.35 210.12 C 341.17 211.87 350.95 213.92 360.67 216.14 C 363.72 217.24 366.88 218.03 370.14 218.18 C 373.57 218.37 376.94 219.13 380.23 220.14 L 379.13 220.15 C 377.07 220.12 375.01 220.10 372.96 220.05 C 377.21 224.63 380.79 230.56 379.72 237.08 C 377.86 249.23 374.63 261.12 372.21 273.16 C 366.90 299.70 360.79 326.07 355.34 352.58 C 350.05 376.08 345.49 399.74 340.36 423.28 C 337.04 440.58 332.99 457.74 330.24 475.15 C 329.01 482.18 324.53 488.90 317.84 491.76 C 315.34 492.89 312.81 493.93 310.35 495.14 L 309.90 495.36 C 272.63 487.54 235.32 479.85 198.04 472.06 C 185.08 469.15 171.97 466.90 159.03 463.87 C 143.32 460.65 127.64 457.28 111.89 454.25 L 111.11 453.85 C 83.42 448.21 55.75 442.46 28.11 436.60 C 21.88 435.34 16.83 430.43 14.49 424.65 C 12.91 420.98 13.31 416.89 13.69 413.03 C 14.68 409.73 15.32 406.34 15.90 402.95 C 18.98 389.39 21.34 375.68 24.43 362.13 C 28.21 345.15 31.29 328.02 35.13 311.05 C 44.03 268.00 52.97 224.95 62.04 181.93 C 63.37 176.10 63.53 169.44 67.92 164.89 C 72.03 159.96 78.78 157.64 85.08 158.65 C 98.57 161.20 111.95 164.33 125.45 166.84 C 125.97 164.47 126.51 162.11 126.90 159.72 C 127.35 159.79 128.24 159.94 128.69 160.01 C 128.15 162.45 127.67 164.90 127.20 167.36 C 136.08 169.35 145.03 170.99 153.91 172.95 C 156.48 173.54 159.15 173.96 161.78 173.54 C 161.79 173.91 161.80 174.65 161.81 175.02 C 162.64 174.33 163.48 173.64 164.31 172.94 C 164.27 173.49 164.17 174.60 164.12 175.15 C 219.47 186.45 274.74 198.20 330.07 209.59 C 330.67 206.37 331.39 203.17 332.17 199.98 C 335.95 181.28 339.44 162.51 343.62 143.89 C 346.41 132.00 346.51 119.55 344.63 107.51 M 117.99 176.50 C 119.73 178.01 121.90 178.66 124.18 178.83 C 129.41 180.31 134.79 181.20 140.12 182.27 C 183.71 191.18 227.36 199.74 271.09 207.87 C 283.72 210.27 296.31 212.97 309.07 214.52 C 299.65 211.38 289.78 209.74 280.08 207.60 C 252.23 202.35 224.54 196.28 196.61 191.44 C 196.49 191.28 196.27 190.97 196.15 190.81 C 191.02 190.47 186.04 189.15 181.01 188.24 C 168.07 185.65 155.07 183.38 142.09 181.01 C 134.94 179.83 127.87 178.07 120.63 177.45 C 119.75 177.13 118.87 176.81 117.99 176.50 M 182.40 262.40 C 170.99 268.79 162.38 280.22 160.21 293.22 C 159.08 300.88 158.76 309.33 162.55 316.35 C 162.07 311.24 160.95 306.16 161.33 301.00 C 161.88 286.06 170.63 271.96 183.31 264.21 C 187.30 261.58 191.91 260.21 196.20 258.17 C 191.31 258.30 186.66 260.10 182.40 262.40 M 196.99 265.01 C 183.58 268.45 172.10 279.23 168.49 292.69 C 167.05 298.34 167.42 304.26 167.71 310.02 C 169.37 321.98 177.34 332.56 187.86 338.29 C 181.89 347.36 174.78 355.60 168.44 364.40 C 163.09 371.92 156.94 378.87 151.97 386.64 C 174.02 391.79 196.13 396.68 218.19 401.76 C 218.18 395.75 216.75 389.88 215.93 383.96 C 214.43 373.64 212.84 363.33 211.15 353.05 C 210.73 349.89 210.11 346.68 210.52 343.50 C 219.40 341.70 228.07 338.07 234.73 331.79 C 243.84 322.51 248.47 308.79 245.77 295.94 C 243.47 283.42 234.67 272.13 222.92 267.11 C 214.88 263.41 205.53 262.84 196.99 265.01 M 165.02 329.20 C 167.22 332.83 170.36 335.81 173.93 338.07 C 172.78 333.90 169.18 330.37 165.02 329.20 Z" />
</g>
<g id="#fcfcfcff">
<path fill="#fcfcfc" opacity="1.00" d=" M 142.40 133.40 C 142.09 126.68 143.43 119.72 146.63 113.76 C 146.94 120.42 146.26 127.78 142.40 133.40 Z" />
<path fill="#fcfcfc" opacity="1.00" d=" M 165.02 329.20 C 169.18 330.37 172.78 333.90 173.93 338.07 C 170.36 335.81 167.22 332.83 165.02 329.20 Z" />
</g>
<g id="#dfe2e4ff">
<path fill="#dfe2e4" opacity="1.00" d=" M 117.99 176.50 C 118.87 176.81 119.75 177.13 120.63 177.45 C 127.87 178.07 134.94 179.83 142.09 181.01 C 155.07 183.38 168.07 185.65 181.01 188.24 C 186.04 189.15 191.02 190.47 196.15 190.81 C 196.27 190.97 196.49 191.28 196.61 191.44 C 224.54 196.28 252.23 202.35 280.08 207.60 C 289.78 209.74 299.65 211.38 309.07 214.52 C 296.31 212.97 283.72 210.27 271.09 207.87 C 227.36 199.74 183.71 191.18 140.12 182.27 C 134.79 181.20 129.41 180.31 124.18 178.83 C 121.90 178.66 119.73 178.01 117.99 176.50 Z" />
</g>
<g id="#303f46ff">
<path fill="#303f46" opacity="1.00" d=" M 372.96 220.05 C 375.01 220.10 377.07 220.12 379.13 220.15 C 381.08 220.28 383.06 220.55 384.95 221.12 C 392.63 222.84 400.40 224.18 408.06 226.02 C 412.90 227.20 416.49 230.98 418.97 235.12 C 422.73 243.66 418.25 252.48 417.10 261.05 C 413.74 275.62 411.27 290.39 407.90 304.96 C 404.05 322.57 400.80 340.31 396.83 357.90 C 393.46 373.93 390.31 390.01 386.87 406.03 C 386.33 408.72 385.70 411.39 385.18 414.09 C 382.25 427.32 379.75 440.65 376.93 453.91 C 376.58 455.57 376.28 457.26 375.86 458.92 C 375.30 461.64 374.68 464.34 374.18 467.07 C 372.20 475.29 370.78 483.63 368.90 491.87 C 367.86 496.70 364.27 500.75 359.73 502.61 C 355.39 504.49 350.52 503.75 346.06 502.79 C 337.01 500.91 327.96 499.07 318.91 497.19 C 317.26 496.77 315.60 496.44 313.93 496.14 C 312.74 495.79 311.54 495.46 310.35 495.14 C 312.81 493.93 315.34 492.89 317.84 491.76 C 324.53 488.90 329.01 482.18 330.24 475.15 C 332.99 457.74 337.04 440.58 340.36 423.28 C 345.49 399.74 350.05 376.08 355.34 352.58 C 360.79 326.07 366.90 299.70 372.21 273.16 C 374.63 261.12 377.86 249.23 379.72 237.08 C 380.79 230.56 377.21 224.63 372.96 220.05 Z" />
<path fill="#303f46" opacity="1.00" d=" M 196.99 265.01 C 205.53 262.84 214.88 263.41 222.92 267.11 C 234.67 272.13 243.47 283.42 245.77 295.94 C 248.47 308.79 243.84 322.51 234.73 331.79 C 228.07 338.07 219.40 341.70 210.52 343.50 C 210.11 346.68 210.73 349.89 211.15 353.05 C 212.84 363.33 214.43 373.64 215.93 383.96 C 216.75 389.88 218.18 395.75 218.19 401.76 C 196.13 396.68 174.02 391.79 151.97 386.64 C 156.94 378.87 163.09 371.92 168.44 364.40 C 174.78 355.60 181.89 347.36 187.86 338.29 C 177.34 332.56 169.37 321.98 167.71 310.02 C 167.42 304.26 167.05 298.34 168.49 292.69 C 172.10 279.23 183.58 268.45 196.99 265.01 Z" />
</g>
<g id="#dbdfe1ff">
<path fill="#dbdfe1" opacity="1.00" d=" M 182.40 262.40 C 186.66 260.10 191.31 258.30 196.20 258.17 C 191.91 260.21 187.30 261.58 183.31 264.21 C 170.63 271.96 161.88 286.06 161.33 301.00 C 160.95 306.16 162.07 311.24 162.55 316.35 C 158.76 309.33 159.08 300.88 160.21 293.22 C 162.38 280.22 170.99 268.79 182.40 262.40 Z" />
</g>
</svg>
